<svg width="41" height="41" viewBox="0 0 41 41" fill="none" xmlns="http://www.w3.org/2000/svg">
<g clip-path="url(#clip0_4621_177)">
<path d="M10.6243 0.0166016C9.83427 0.0166016 9.19385 0.657027 9.19385 1.44706V4.30789H12.0547V1.44706C12.0547 0.657027 11.4143 0.0166016 10.6243 0.0166016Z" fill="white"/>
<path d="M30.6504 0.0166016C29.8604 0.0166016 29.22 0.657027 29.22 1.44706V4.30789H32.0808V1.44706C32.0809 0.657027 31.4405 0.0166016 30.6504 0.0166016Z" fill="white"/>
<path d="M36.3724 4.30762H32.0811V10.0294C32.0811 10.8194 31.4406 11.4598 30.6506 11.4598C29.8606 11.4598 29.2202 10.8194 29.2202 10.0294V4.30762H12.055V10.0294C12.055 10.8194 11.4146 11.4598 10.6245 11.4598C9.8345 11.4598 9.19407 10.8194 9.19407 10.0294V4.30762H4.90286C2.53285 4.30762 0.611572 6.22889 0.611572 8.59891V35.7771C0.611572 38.1471 2.53285 40.0684 4.90286 40.0684H36.3724C38.7424 40.0684 40.6637 38.1471 40.6637 35.7771V8.59891C40.6637 6.22889 38.7424 4.30762 36.3724 4.30762ZM37.8027 35.7771C37.8027 36.5671 37.1623 37.2076 36.3723 37.2076H4.90286C4.11283 37.2076 3.47241 36.5671 3.47241 35.7771V17.1815H37.8027V35.7771Z" fill="white"/>
<path d="M12.0547 20.0425H9.19389C8.40385 20.0425 7.76343 20.6829 7.76343 21.4729C7.76343 22.263 8.40385 22.9034 9.19389 22.9034H12.0547C12.8448 22.9034 13.4852 22.263 13.4852 21.4729C13.4852 20.6829 12.8448 20.0425 12.0547 20.0425Z" fill="white"/>
<path d="M22.0679 20.0425H19.2071C18.417 20.0425 17.7766 20.6829 17.7766 21.4729C17.7766 22.263 18.417 22.9034 19.2071 22.9034H22.0679C22.8579 22.9034 23.4984 22.263 23.4984 21.4729C23.4984 20.6829 22.8579 20.0425 22.0679 20.0425Z" fill="white"/>
<path d="M32.0808 20.0425H29.22C28.43 20.0425 27.7896 20.6829 27.7896 21.4729C27.7896 22.263 28.43 22.9034 29.22 22.9034H32.0808C32.8709 22.9034 33.5113 22.263 33.5113 21.4729C33.5113 20.6829 32.8708 20.0425 32.0808 20.0425Z" fill="white"/>
<path d="M12.0547 25.7642H9.19389C8.40385 25.7642 7.76343 26.4046 7.76343 27.1946C7.76343 27.9847 8.40385 28.6251 9.19389 28.6251H12.0547C12.8448 28.6251 13.4852 27.9847 13.4852 27.1946C13.4852 26.4046 12.8448 25.7642 12.0547 25.7642Z" fill="white"/>
<path d="M22.0679 25.7642H19.2071C18.417 25.7642 17.7766 26.4046 17.7766 27.1946C17.7766 27.9847 18.417 28.6251 19.2071 28.6251H22.0679C22.8579 28.6251 23.4984 27.9847 23.4984 27.1946C23.4984 26.4046 22.8579 25.7642 22.0679 25.7642Z" fill="white"/>
<path d="M32.0808 25.7642H29.22C28.43 25.7642 27.7896 26.4046 27.7896 27.1946C27.7896 27.9847 28.43 28.6251 29.22 28.6251H32.0808C32.8709 28.6251 33.5113 27.9847 33.5113 27.1946C33.5112 26.4046 32.8708 25.7642 32.0808 25.7642Z" fill="white"/>
<path d="M12.0547 31.4863H9.19389C8.40385 31.4863 7.76343 32.1268 7.76343 32.9168C7.76343 33.7068 8.40385 34.3472 9.19389 34.3472H12.0547C12.8448 34.3472 13.4852 33.7067 13.4852 32.9167C13.4852 32.1267 12.8448 31.4863 12.0547 31.4863Z" fill="white"/>
<path d="M22.0679 31.4863H19.2071C18.417 31.4863 17.7766 32.1268 17.7766 32.9168C17.7766 33.7068 18.417 34.3473 19.2071 34.3473H22.0679C22.8579 34.3473 23.4984 33.7068 23.4984 32.9168C23.4984 32.1268 22.8579 31.4863 22.0679 31.4863Z" fill="white"/>
<path d="M32.0808 31.4863H29.22C28.43 31.4863 27.7896 32.1268 27.7896 32.9168C27.7896 33.7068 28.43 34.3473 29.22 34.3473H32.0808C32.8709 34.3473 33.5113 33.7068 33.5113 32.9168C33.5113 32.1268 32.8708 31.4863 32.0808 31.4863Z" fill="white"/>
</g>
<defs>
<clipPath id="clip0_4621_177">
<rect width="40.0521" height="40.0521" fill="white" transform="translate(0.611328 0.0166016)"/>
</clipPath>
</defs>
</svg>
