<svg width="57" height="57" viewBox="0 0 57 57" fill="none" xmlns="http://www.w3.org/2000/svg">
<g clip-path="url(#clip0_4621_214)">
<path d="M28.2428 0.109375C12.7828 0.109375 0.206299 12.6859 0.206299 28.1458C0.206299 43.6058 12.7828 56.1823 28.2428 56.1823C43.7027 56.1823 56.2792 43.6058 56.2792 28.1458C56.2792 12.6859 43.7027 0.109375 28.2428 0.109375ZM41.5765 42.6475C41.1209 43.1031 40.5228 43.3324 39.9248 43.3324C39.3267 43.3324 38.7282 43.1031 38.273 42.6475L26.591 30.9659C26.1517 30.5291 25.9065 29.9353 25.9065 29.3142V14.1276C25.9065 12.8356 26.9529 11.7914 28.2428 11.7914C29.5326 11.7914 30.579 12.8356 30.579 14.1276V28.3469L41.5765 39.344C42.4899 40.2578 42.4899 41.7341 41.5765 42.6475Z" fill="white"/>
</g>
<defs>
<clipPath id="clip0_4621_214">
<rect width="56.0729" height="56.0729" fill="white" transform="translate(0.206055 0.109375)"/>
</clipPath>
</defs>
</svg>
