<svg width="34" height="34" viewBox="0 0 34 34" fill="none" xmlns="http://www.w3.org/2000/svg">
<path d="M33.7239 17.1819C33.7227 13.9715 32.8017 10.8287 31.0698 8.12553C29.338 5.42237 26.8678 3.27204 23.9518 1.92911C21.0358 0.58619 17.7961 0.10691 14.6162 0.548015C11.4363 0.989119 8.44934 2.33214 6.00899 4.41807C3.56864 6.504 1.77712 9.2455 0.846435 12.318C-0.0842467 15.3905 -0.115105 18.6653 0.757579 21.7548C1.63026 24.8443 3.36994 27.619 5.77059 29.7505C8.17125 31.882 11.1323 33.281 14.3034 33.7819V22.0441H10.0584V17.1819H14.3319V13.4782C14.3319 9.27119 16.839 6.94453 20.6756 6.94453C21.9483 6.96088 23.218 7.07198 24.4743 7.27691V11.4079H22.3565C21.9911 11.35 21.6172 11.3763 21.2635 11.4848C20.9097 11.5933 20.5854 11.781 20.3153 12.0338C20.0451 12.2866 19.8361 12.5977 19.7044 12.9435C19.5727 13.2892 19.5216 13.6605 19.555 14.029V17.1819H24.2178L23.4771 22.0441H19.555V33.7819C23.5058 33.1536 27.1029 31.1369 29.7 28.0942C32.2971 25.0514 33.7239 21.1822 33.7239 17.1819Z" fill="#373C59"/>
<path d="M23.4677 22.0439L24.2084 17.1817H19.5551V14.0288C19.5234 13.6658 19.5737 13.3004 19.7023 12.9594C19.8309 12.6185 20.0344 12.3109 20.2979 12.0592C20.5614 11.8076 20.8781 11.6184 21.2246 11.5056C21.571 11.3928 21.9385 11.3594 22.2996 11.4077H24.4173V7.27672C23.1611 7.07179 21.8914 6.96069 20.6187 6.94434C16.82 6.94434 14.275 9.271 14.275 13.478V17.1817H10.0585V22.0439H14.3319V33.7817C16.0692 34.0476 17.8368 34.0476 19.5741 33.7817V22.0439H23.4677Z" fill="white"/>
</svg>
