<svg width="34" height="34" viewBox="0 0 34 34" fill="none" xmlns="http://www.w3.org/2000/svg">
<path d="M17.2061 33.9876C26.4842 33.9876 34.0056 26.4662 34.0056 17.1881C34.0056 7.91005 26.4842 0.388672 17.2061 0.388672C7.928 0.388672 0.406616 7.91005 0.406616 17.1881C0.406616 26.4662 7.928 33.9876 17.2061 33.9876Z" fill="#373C59"/>
<path d="M22.4197 10.835C22.1905 10.835 21.9665 10.9029 21.776 11.0302C21.5855 11.1575 21.437 11.3385 21.3493 11.5502C21.2616 11.7619 21.2387 11.9948 21.2834 12.2196C21.3281 12.4443 21.4384 12.6508 21.6004 12.8128C21.7624 12.9748 21.9689 13.0852 22.1937 13.1299C22.4184 13.1746 22.6514 13.1516 22.8631 13.0639C23.0748 12.9763 23.2557 12.8277 23.383 12.6372C23.5103 12.4467 23.5783 12.2227 23.5783 11.9935C23.5783 11.6863 23.4562 11.3916 23.2389 11.1743C23.0216 10.957 22.7269 10.835 22.4197 10.835Z" fill="white"/>
<path d="M17.282 12.3154C16.3222 12.3154 15.3839 12.6 14.5859 13.1333C13.7879 13.6665 13.1659 14.4244 12.7986 15.3111C12.4313 16.1978 12.3352 17.1736 12.5224 18.1149C12.7097 19.0563 13.1719 19.9209 13.8505 20.5996C14.5292 21.2783 15.3939 21.7405 16.3353 21.9277C17.2766 22.115 18.2523 22.0188 19.139 21.6516C20.0258 21.2843 20.7837 20.6623 21.3169 19.8642C21.8502 19.0662 22.1347 18.128 22.1347 17.1682C22.1347 16.5309 22.0092 15.8999 21.7653 15.3111C21.5215 14.7224 21.164 14.1874 20.7134 13.7368C20.2628 13.2862 19.7278 12.9287 19.139 12.6848C18.5503 12.441 17.9192 12.3154 17.282 12.3154ZM17.282 20.2736C16.6682 20.2717 16.0688 20.088 15.5593 19.7456C15.0499 19.4032 14.6534 18.9176 14.4198 18.35C14.1862 17.7824 14.126 17.1583 14.2469 16.5566C14.3678 15.9548 14.6643 15.4024 15.099 14.969C15.5337 14.5357 16.087 14.2409 16.6891 14.1218C17.2913 14.0027 17.9152 14.0648 18.482 14.3001C19.0489 14.5354 19.5334 14.9335 19.8742 15.4439C20.215 15.9544 20.3969 16.5544 20.3969 17.1682C20.3944 17.9927 20.0651 18.7825 19.4812 19.3646C18.8973 19.9467 18.1065 20.2736 17.282 20.2736Z" fill="white"/>
<path d="M21.1375 27.0162H13.2743C12.4974 27.0162 11.728 26.8632 11.0102 26.5659C10.2924 26.2686 9.6402 25.8328 9.09082 25.2834C8.54143 24.734 8.10561 24.0818 7.80828 23.364C7.51095 22.6462 7.35791 21.8768 7.35791 21.0999V13.2367C7.35791 11.6676 7.98128 10.1627 9.09082 9.05318C10.2004 7.94364 11.7052 7.32031 13.2743 7.32031H21.1375C22.7066 7.32031 24.2114 7.94364 25.321 9.05318C26.4305 10.1627 27.0538 11.6676 27.0538 13.2367V21.0999C27.0538 21.8768 26.9008 22.6462 26.6035 23.364C26.3062 24.0818 25.8704 24.734 25.321 25.2834C24.7716 25.8328 24.1194 26.2686 23.4016 26.5659C22.6837 26.8632 21.9144 27.0162 21.1375 27.0162ZM13.2743 9.17215C12.1963 9.17215 11.1625 9.60038 10.4003 10.3626C9.638 11.1249 9.20976 12.1587 9.20976 13.2367V21.0999C9.20726 21.6352 9.31057 22.1658 9.51371 22.6611C9.71686 23.1565 10.0159 23.6068 10.3935 23.9862C10.7712 24.3657 11.2201 24.6668 11.7145 24.8722C12.2089 25.0777 12.739 25.1834 13.2743 25.1834H21.1375C21.6712 25.1834 22.1998 25.0783 22.6929 24.874C23.186 24.6697 23.6341 24.3704 24.0116 23.9929C24.389 23.6155 24.6884 23.1674 24.8926 22.6743C25.0969 22.1812 25.202 21.6526 25.202 21.1189V13.2367C25.202 12.1587 24.7738 11.1249 24.0116 10.3626C23.2493 9.60038 22.2155 9.17215 21.1375 9.17215H13.2743Z" fill="white"/>
</svg>
