<svg width="41" height="40" viewBox="0 0 41 40" fill="none" xmlns="http://www.w3.org/2000/svg">
<g clip-path="url(#clip0_4620_96)">
<path d="M20.479 5.97148C19.8001 5.97148 19.249 5.42044 19.249 4.74148V1.532C19.249 0.853042 19.8001 0.302002 20.479 0.302002C21.158 0.302002 21.709 0.853042 21.709 1.532V4.74148C21.709 5.42044 21.158 5.97148 20.479 5.97148Z" fill="white"/>
<path d="M31.2552 10.4358C30.9403 10.4358 30.6255 10.3161 30.386 10.075C29.9055 9.5945 29.9055 8.8155 30.386 8.33498L32.6558 6.06522C33.1363 5.5847 33.9153 5.5847 34.3958 6.06522C34.8763 6.54574 34.8763 7.32474 34.3958 7.80526L32.1261 10.075C31.885 10.3145 31.5701 10.4358 31.2552 10.4358V10.4358Z" fill="white"/>
<path d="M38.9287 21.2122H35.7193C35.0403 21.2122 34.4893 20.6612 34.4893 19.9822C34.4893 19.3032 35.0403 18.7522 35.7193 18.7522H38.9287C39.6077 18.7522 40.1587 19.3032 40.1587 19.9822C40.1587 20.6612 39.6077 21.2122 38.9287 21.2122Z" fill="white"/>
<path d="M33.525 34.2583C33.2101 34.2583 32.8952 34.1386 32.6558 33.8975L30.386 31.6278C29.9055 31.1472 29.9055 30.3683 30.386 29.8877C30.8665 29.4072 31.6455 29.4072 32.1261 29.8877L34.3958 32.1575C34.8763 32.638 34.8763 33.417 34.3958 33.8975C34.1547 34.1386 33.8399 34.2583 33.525 34.2583Z" fill="white"/>
<path d="M7.43271 34.2583C7.11783 34.2583 6.80295 34.1386 6.56351 33.8975C6.083 33.417 6.083 32.638 6.56351 32.1575L8.83327 29.8877C9.31379 29.4072 10.0928 29.4072 10.5733 29.8877C11.0538 30.3683 11.0538 31.1472 10.5733 31.6278L8.30355 33.8975C8.06247 34.1386 7.74759 34.2583 7.43271 34.2583V34.2583Z" fill="white"/>
<path d="M5.23831 21.2122H2.02883C1.34987 21.2122 0.798828 20.6612 0.798828 19.9822C0.798828 19.3032 1.34987 18.7522 2.02883 18.7522H5.23831C5.91727 18.7522 6.46831 19.3032 6.46831 19.9822C6.46831 20.6612 5.91727 21.2122 5.23831 21.2122Z" fill="white"/>
<path d="M9.70247 10.4358C9.38759 10.4358 9.07271 10.3161 8.83327 10.075L6.56351 7.80526C6.083 7.32474 6.083 6.54574 6.56351 6.06522C7.04403 5.5847 7.82303 5.5847 8.30355 6.06522L10.5733 8.33498C11.0538 8.8155 11.0538 9.5945 10.5733 10.075C10.3306 10.3145 10.0173 10.4358 9.70247 10.4358V10.4358Z" fill="white"/>
<path d="M25.3988 34.7422V36.7922C25.3988 38.3666 24.1032 39.6622 22.5288 39.6622H18.4288C17.0512 39.6622 15.5588 38.6126 15.5588 36.3166V34.7422H25.3988Z" fill="white"/>
<path d="M27.7113 11.0603C25.0217 8.8791 21.4793 8.0263 18.0189 8.7643C13.6729 9.6663 10.1469 13.2087 9.24493 17.5547C8.32653 22.0155 9.99933 26.4435 13.5745 29.1495C14.5421 29.8711 15.2145 30.9863 15.4441 32.2819V32.2983C15.4769 32.2819 15.5261 32.2819 15.5589 32.2819H25.3989C25.4317 32.2819 25.4481 32.2819 25.4809 32.2983V32.2819C25.7105 31.0355 26.4485 29.8875 27.5801 29.0019C30.3517 26.8043 31.9589 23.5243 31.9589 19.9819C31.9589 16.5051 30.4173 13.2579 27.7113 11.0603ZM19.8639 19.5719H21.0939C23.016 19.5719 24.5789 21.1348 24.5789 23.0569C24.5789 24.7674 23.3374 26.1877 21.7089 26.4796V28.5919C21.7089 29.2708 21.1579 29.8219 20.4789 29.8219C19.8 29.8219 19.2489 29.2708 19.2489 28.5919V26.5419H17.6089C16.93 26.5419 16.3789 25.9909 16.3789 25.3119C16.3789 24.6329 16.93 24.0819 17.6089 24.0819H21.0939C21.6597 24.0819 22.1189 23.6227 22.1189 23.0569C22.1189 22.4911 21.6597 22.0319 21.0939 22.0319H19.8639C17.9418 22.0319 16.3789 20.469 16.3789 18.5469C16.3789 16.8364 17.6204 15.4161 19.2489 15.1242V13.0119C19.2489 12.3329 19.8 11.7819 20.4789 11.7819C21.1579 11.7819 21.7089 12.3329 21.7089 13.0119V15.0619H23.3489C24.0279 15.0619 24.5789 15.6129 24.5789 16.2919C24.5789 16.9709 24.0279 17.5219 23.3489 17.5219H19.8639C19.2981 17.5219 18.8389 17.9811 18.8389 18.5469C18.8389 19.1127 19.2981 19.5719 19.8639 19.5719Z" fill="white"/>
<path d="M15.4441 32.282H15.5595C15.5265 32.282 15.4771 32.282 15.4441 32.2985V32.282Z" fill="white"/>
<path d="M25.4821 32.282V32.2986C25.4488 32.282 25.4322 32.282 25.3989 32.282H25.4821Z" fill="white"/>
</g>
<defs>
<clipPath id="clip0_4620_96">
<rect width="39.36" height="39.36" fill="white" transform="translate(0.799316 0.304688)"/>
</clipPath>
</defs>
</svg>
