<svg width="163" height="37" viewBox="0 0 163 37" fill="none" xmlns="http://www.w3.org/2000/svg">
<path d="M49.2449 9.79455V12.5101H44.7751V26.5684H41.4107V12.5101H36.9409V9.79455H49.2449ZM64.0757 19.6233C64.0757 20.104 64.0437 20.5365 63.9796 20.921H54.2469C54.327 21.8823 54.6635 22.6352 55.2563 23.18C55.849 23.7247 56.578 23.997 57.4431 23.997C58.6927 23.997 59.5819 23.4603 60.1106 22.3869H63.7393C63.3548 23.6686 62.6178 24.726 61.5284 25.559C60.439 26.3761 59.1013 26.7846 57.5152 26.7846C56.2335 26.7846 55.08 26.5043 54.0547 25.9435C53.0454 25.3668 52.2523 24.5577 51.6756 23.5164C51.1149 22.475 50.8345 21.2735 50.8345 19.9117C50.8345 18.5339 51.1149 17.3243 51.6756 16.283C52.2363 15.2416 53.0213 14.4406 54.0307 13.8799C55.04 13.3191 56.2015 13.0388 57.5152 13.0388C58.7808 13.0388 59.9103 13.3111 60.9036 13.8558C61.9129 14.4005 62.6899 15.1775 63.2346 16.1869C63.7954 17.1802 64.0757 18.3256 64.0757 19.6233ZM60.5912 18.6621C60.5752 17.797 60.2628 17.1081 59.654 16.5954C59.0452 16.0667 58.3002 15.8024 57.4191 15.8024C56.586 15.8024 55.8811 16.0587 55.3043 16.5714C54.7436 17.068 54.3991 17.7649 54.271 18.6621H60.5912ZM65.6663 19.8636C65.6663 18.5179 65.9306 17.3243 66.4593 16.283C67.004 15.2416 67.733 14.4406 68.6462 13.8799C69.5754 13.3191 70.6087 13.0388 71.7462 13.0388C72.7395 13.0388 73.6046 13.239 74.3416 13.6395C75.0946 14.0401 75.6953 14.5447 76.1439 15.1535V13.255H79.5323V26.5684H76.1439V24.6218C75.7114 25.2466 75.1106 25.7673 74.3416 26.1839C73.5886 26.5844 72.7155 26.7846 71.7222 26.7846C70.6007 26.7846 69.5754 26.4963 68.6462 25.9195C67.733 25.3428 67.004 24.5337 66.4593 23.4924C65.9306 22.435 65.6663 21.2254 65.6663 19.8636ZM76.1439 19.9117C76.1439 19.0946 75.9837 18.3977 75.6633 17.821C75.3429 17.2282 74.9103 16.7796 74.3656 16.4752C73.8209 16.1548 73.2361 15.9946 72.6113 15.9946C71.9865 15.9946 71.4098 16.1468 70.8811 16.4512C70.3524 16.7556 69.9198 17.2042 69.5834 17.797C69.263 18.3737 69.1028 19.0626 69.1028 19.8636C69.1028 20.6647 69.263 21.3696 69.5834 21.9784C69.9198 22.5712 70.3524 23.0278 70.8811 23.3482C71.4258 23.6686 72.0025 23.8288 72.6113 23.8288C73.2361 23.8288 73.8209 23.6766 74.3656 23.3722C74.9103 23.0518 75.3429 22.6032 75.6633 22.0265C75.9837 21.4337 76.1439 20.7288 76.1439 19.9117ZM99.3517 13.0628C100.986 13.0628 102.3 13.5675 103.293 14.5768C104.302 15.5701 104.807 16.9639 104.807 18.7582V26.5684H101.442V19.2148C101.442 18.1734 101.178 17.3804 100.649 16.8357C100.121 16.275 99.3998 15.9946 98.4866 15.9946C97.5734 15.9946 96.8445 16.275 96.2998 16.8357C95.7711 17.3804 95.5067 18.1734 95.5067 19.2148V26.5684H92.1423V19.2148C92.1423 18.1734 91.878 17.3804 91.3493 16.8357C90.8206 16.275 90.0997 15.9946 89.1865 15.9946C88.2573 15.9946 87.5203 16.275 86.9756 16.8357C86.4469 17.3804 86.1826 18.1734 86.1826 19.2148V26.5684H82.8182V13.255H86.1826V14.8651C86.6152 14.3044 87.1679 13.8638 87.8408 13.5434C88.5296 13.223 89.2826 13.0628 90.0997 13.0628C91.141 13.0628 92.0703 13.2871 92.8873 13.7357C93.7044 14.1682 94.3372 14.793 94.7858 15.6101C95.2183 14.8411 95.8432 14.2243 96.6602 13.7597C97.4933 13.2951 98.3905 13.0628 99.3517 13.0628Z" fill="#5565F0"/>
<path d="M118.357 9.79455V12.5101H111.364V16.8117H116.723V19.4791H111.364V26.5684H107.999V9.79455H118.357ZM124.107 8.78523V26.5684H120.743V8.78523H124.107ZM133.343 26.7846C132.061 26.7846 130.907 26.5043 129.882 25.9435C128.857 25.3668 128.048 24.5577 127.455 23.5164C126.878 22.475 126.59 21.2735 126.59 19.9117C126.59 18.5499 126.886 17.3484 127.479 16.307C128.088 15.2657 128.913 14.4646 129.954 13.9039C130.996 13.3271 132.157 13.0388 133.439 13.0388C134.72 13.0388 135.882 13.3271 136.923 13.9039C137.965 14.4646 138.782 15.2657 139.374 16.307C139.983 17.3484 140.288 18.5499 140.288 19.9117C140.288 21.2735 139.975 22.475 139.35 23.5164C138.742 24.5577 137.909 25.3668 136.851 25.9435C135.81 26.5043 134.64 26.7846 133.343 26.7846ZM133.343 23.8528C133.951 23.8528 134.52 23.7086 135.049 23.4203C135.594 23.1159 136.026 22.6673 136.347 22.0745C136.667 21.4817 136.827 20.7608 136.827 19.9117C136.827 18.6461 136.491 17.6768 135.818 17.0039C135.161 16.315 134.352 15.9706 133.391 15.9706C132.429 15.9706 131.62 16.315 130.964 17.0039C130.323 17.6768 130.002 18.6461 130.002 19.9117C130.002 21.1773 130.315 22.1546 130.939 22.8435C131.58 23.5164 132.381 23.8528 133.343 23.8528ZM161.212 13.255L157.318 26.5684H153.69L151.263 17.2683L148.835 26.5684H145.183L141.266 13.255H144.678L147.033 23.3962L149.58 13.255H153.137L155.636 23.3722L157.991 13.255H161.212Z" fill="#D77F3F"/>
<circle cx="14.1432" cy="17.7907" r="14.0182" fill="#5565F0"/>
<path d="M19.6297 10.8283L16.9743 20.3907L7.8318 24.2517L10.4872 14.6892L19.6297 10.8283Z" fill="white"/>
</svg>
