<svg width="162" height="37" viewBox="0 0 162 37" fill="none" xmlns="http://www.w3.org/2000/svg">
<path d="M49.0565 9.75081V12.4628H44.5925V26.5028H41.2325V12.4628H36.7685V9.75081H49.0565ZM63.8681 19.5668C63.8681 20.0468 63.8361 20.4788 63.7721 20.8628H54.0521C54.1321 21.8228 54.4681 22.5748 55.0601 23.1188C55.6521 23.6628 56.3801 23.9348 57.2441 23.9348C58.4921 23.9348 59.3801 23.3988 59.9081 22.3268H63.5321C63.1481 23.6068 62.4121 24.6628 61.3241 25.4948C60.2361 26.3108 58.9001 26.7188 57.3161 26.7188C56.0361 26.7188 54.8841 26.4388 53.8601 25.8788C52.8521 25.3028 52.0601 24.4948 51.4841 23.4548C50.9241 22.4148 50.6441 21.2148 50.6441 19.8548C50.6441 18.4788 50.9241 17.2708 51.4841 16.2308C52.0441 15.1908 52.8281 14.3908 53.8361 13.8308C54.8441 13.2708 56.0041 12.9908 57.3161 12.9908C58.5801 12.9908 59.7081 13.2628 60.7001 13.8068C61.7081 14.3508 62.4841 15.1268 63.0281 16.1348C63.5881 17.1268 63.8681 18.2708 63.8681 19.5668ZM60.3881 18.6068C60.3721 17.7428 60.0601 17.0548 59.4521 16.5428C58.8441 16.0148 58.1001 15.7508 57.2201 15.7508C56.3881 15.7508 55.6841 16.0068 55.1081 16.5188C54.5481 17.0148 54.2041 17.7108 54.0761 18.6068H60.3881ZM65.4566 19.8068C65.4566 18.4628 65.7206 17.2708 66.2486 16.2308C66.7926 15.1908 67.5206 14.3908 68.4326 13.8308C69.3606 13.2708 70.3926 12.9908 71.5286 12.9908C72.5206 12.9908 73.3846 13.1908 74.1206 13.5908C74.8726 13.9908 75.4726 14.4948 75.9206 15.1028V13.2068H79.3046V26.5028H75.9206V24.5588C75.4886 25.1828 74.8886 25.7028 74.1206 26.1188C73.3686 26.5188 72.4966 26.7188 71.5046 26.7188C70.3846 26.7188 69.3606 26.4308 68.4326 25.8548C67.5206 25.2788 66.7926 24.4708 66.2486 23.4308C65.7206 22.3748 65.4566 21.1668 65.4566 19.8068ZM75.9206 19.8548C75.9206 19.0388 75.7606 18.3428 75.4406 17.7668C75.1206 17.1748 74.6886 16.7268 74.1446 16.4228C73.6006 16.1028 73.0166 15.9428 72.3926 15.9428C71.7686 15.9428 71.1926 16.0948 70.6646 16.3988C70.1366 16.7028 69.7046 17.1508 69.3686 17.7428C69.0486 18.3188 68.8886 19.0068 68.8886 19.8068C68.8886 20.6068 69.0486 21.3108 69.3686 21.9188C69.7046 22.5108 70.1366 22.9668 70.6646 23.2868C71.2086 23.6068 71.7846 23.7668 72.3926 23.7668C73.0166 23.7668 73.6006 23.6148 74.1446 23.3108C74.6886 22.9908 75.1206 22.5428 75.4406 21.9668C75.7606 21.3748 75.9206 20.6708 75.9206 19.8548ZM99.0982 13.0148C100.73 13.0148 102.042 13.5188 103.034 14.5268C104.042 15.5188 104.546 16.9108 104.546 18.7028V26.5028H101.186V19.1588C101.186 18.1188 100.922 17.3268 100.394 16.7828C99.8662 16.2228 99.1462 15.9428 98.2342 15.9428C97.3222 15.9428 96.5942 16.2228 96.0502 16.7828C95.5222 17.3268 95.2582 18.1188 95.2582 19.1588V26.5028H91.8982V19.1588C91.8982 18.1188 91.6342 17.3268 91.1062 16.7828C90.5782 16.2228 89.8582 15.9428 88.9462 15.9428C88.0182 15.9428 87.2822 16.2228 86.7382 16.7828C86.2102 17.3268 85.9462 18.1188 85.9462 19.1588V26.5028H82.5862V13.2068H85.9462V14.8148C86.3782 14.2548 86.9302 13.8148 87.6022 13.4948C88.2902 13.1748 89.0422 13.0148 89.8582 13.0148C90.8982 13.0148 91.8262 13.2388 92.6422 13.6868C93.4582 14.1188 94.0902 14.7428 94.5382 15.5588C94.9702 14.7908 95.5942 14.1748 96.4102 13.7108C97.2422 13.2468 98.1382 13.0148 99.0982 13.0148ZM118.079 9.75081V12.4628H111.095V16.7588H116.447V19.4228H111.095V26.5028H107.735V9.75081H118.079ZM123.821 8.74281V26.5028H120.461V8.74281H123.821ZM133.045 26.7188C131.765 26.7188 130.613 26.4388 129.589 25.8788C128.565 25.3028 127.757 24.4948 127.165 23.4548C126.589 22.4148 126.301 21.2148 126.301 19.8548C126.301 18.4948 126.597 17.2948 127.189 16.2548C127.797 15.2148 128.621 14.4148 129.661 13.8548C130.701 13.2788 131.861 12.9908 133.141 12.9908C134.421 12.9908 135.581 13.2788 136.621 13.8548C137.661 14.4148 138.477 15.2148 139.069 16.2548C139.677 17.2948 139.981 18.4948 139.981 19.8548C139.981 21.2148 139.669 22.4148 139.045 23.4548C138.437 24.4948 137.605 25.3028 136.549 25.8788C135.509 26.4388 134.341 26.7188 133.045 26.7188ZM133.045 23.7908C133.653 23.7908 134.221 23.6468 134.749 23.3588C135.293 23.0548 135.725 22.6068 136.045 22.0148C136.365 21.4228 136.525 20.7028 136.525 19.8548C136.525 18.5908 136.189 17.6228 135.517 16.9508C134.861 16.2628 134.053 15.9188 133.093 15.9188C132.133 15.9188 131.325 16.2628 130.669 16.9508C130.029 17.6228 129.709 18.5908 129.709 19.8548C129.709 21.1188 130.021 22.0948 130.645 22.7828C131.285 23.4548 132.085 23.7908 133.045 23.7908ZM160.878 13.2068L156.99 26.5028H153.366L150.942 17.2148L148.518 26.5028H144.87L140.958 13.2068H144.366L146.718 23.3348L149.262 13.2068H152.814L155.31 23.3108L157.662 13.2068H160.878Z" fill="white"/>
<circle cx="14.0005" cy="17.7029" r="14" fill="#FFCA1D"/>
<path d="M19.4804 10.7483L16.8285 20.2983L7.6979 24.1542L10.3498 14.6042L19.4804 10.7483Z" fill="white"/>
</svg>
