<svg width="65" height="65" viewBox="0 0 65 65" fill="none" xmlns="http://www.w3.org/2000/svg">
<g clip-path="url(#clip0_4621_167)">
<path d="M32.2844 12.1348C30.5295 12.1348 28.8404 12.6627 27.3999 13.6615C26.9741 13.9568 26.8665 14.5439 27.1595 14.973C27.4526 15.402 28.0354 15.5104 28.4612 15.2153C29.5882 14.4339 30.9101 14.0208 32.2844 14.0208C36.0085 14.0208 39.0382 17.0733 39.0382 20.8253C39.0382 24.5773 36.0085 27.6299 32.2844 27.6299C28.5603 27.6299 25.5306 24.5773 25.5306 20.8253C25.5306 19.7185 25.7857 18.6634 26.2887 17.6894C26.5273 17.2273 26.3491 16.6579 25.8905 16.4176C25.4317 16.1774 24.8669 16.3568 24.6282 16.8189C23.994 18.047 23.6587 19.4324 23.6587 20.8253C23.6588 25.6174 27.5282 29.516 32.2844 29.516C37.0406 29.516 40.91 25.6174 40.91 20.8253C40.91 16.0333 37.0406 12.1348 32.2844 12.1348Z" fill="white"/>
<path d="M64.2546 63.235L55.0171 40.8728C54.8719 40.5213 54.5311 40.2922 54.1531 40.2922H44.9477C46.7382 37.8518 48.2285 35.421 49.3924 33.0343C51.4551 28.8045 52.5008 24.6968 52.5008 20.825C52.5007 9.59404 43.4319 0.457031 32.2848 0.457031C21.1376 0.457031 12.0689 9.59404 12.0689 20.8249C12.0689 24.6967 13.1146 28.8045 15.1773 33.0341C16.341 35.4209 17.8313 37.8518 19.6219 40.2921H10.4166C10.0386 40.2921 9.69765 40.5213 9.55258 40.8727L3.25789 56.1108C3.05926 56.5917 3.28506 57.1436 3.7623 57.3436C3.87995 57.3929 4.00161 57.4164 4.12152 57.4164C4.48825 57.4164 4.83632 57.1978 4.98589 56.8355L5.88406 54.6611H12.2556L8.9538 62.6543H2.58239L3.53951 60.3372C3.73814 59.8563 3.51235 59.3043 3.03511 59.1043C2.55761 58.9039 2.0099 59.1317 1.81139 59.6125L0.315068 63.235C0.194786 63.5261 0.226828 63.8585 0.400554 64.1206C0.574029 64.3828 0.866159 64.5404 1.17907 64.5404H63.3905C63.7033 64.5404 63.9955 64.3828 64.1691 64.1206C64.3427 63.8585 64.3749 63.5261 64.2546 63.235ZM13.9408 20.8249C13.9408 10.6339 22.1699 2.34298 32.2848 2.34298C42.3997 2.34298 50.6288 10.634 50.6288 20.8249C50.6288 25.0983 49.155 31.9272 42.3373 40.6295C42.3305 40.6377 42.3243 40.6463 42.3178 40.6547C41.9696 41.0986 41.6079 41.5473 41.2313 42.0011C37.4849 46.5147 33.6937 49.8106 32.2846 50.9816C30.8797 49.8146 27.1064 46.5352 23.3627 42.0302C22.9767 41.5657 22.6064 41.1065 22.2501 40.6522C22.2443 40.6449 22.239 40.6374 22.2329 40.6303C15.4156 31.9286 13.9408 25.1 13.9408 20.8249ZM11.0408 42.1782H17.4124L15.0884 47.804H8.71687L11.0408 42.1782ZM16.5139 62.6544L22.3641 48.4925L39.0125 62.6544H16.5139ZM41.9142 62.6544L22.595 46.2205C22.367 46.0264 22.0606 45.9537 21.771 46.0245C21.4811 46.0953 21.2418 46.3012 21.1273 46.5786L14.4865 62.6543H10.9814L14.523 54.0804C14.6433 53.7894 14.6113 53.4571 14.4376 53.1949C14.2641 52.9326 13.9718 52.7751 13.6589 52.7751H6.66345L7.93786 49.6898H15.7127C16.0907 49.6898 16.4317 49.4606 16.5767 49.1092L19.4399 42.178H21.0643C21.3463 42.5322 21.6329 42.8866 21.9272 43.2408C26.7566 49.0521 31.5119 52.7831 31.712 52.9392C31.8807 53.0707 32.0828 53.1363 32.2848 53.1363C32.4868 53.1363 32.6889 53.0706 32.8575 52.9392C32.9675 52.8534 34.4542 51.6864 36.5715 49.6899H47.1704C47.6873 49.6899 48.1063 49.2678 48.1063 48.747C48.1063 48.2262 47.6873 47.804 47.1704 47.804H38.5005C39.7982 46.4894 41.2165 44.9566 42.6425 43.2409C42.9367 42.8867 43.2235 42.5325 43.5054 42.1782H53.5288L55.8527 47.804H50.9141C50.3972 47.804 49.9782 48.2262 49.9782 48.747C49.9782 49.2678 50.3971 49.6899 50.9141 49.6899H56.6317L57.9061 52.7752H38.6223C38.2316 52.7752 37.8822 53.0195 37.7454 53.3882C37.6088 53.757 37.7137 54.1724 38.0087 54.4303L47.4126 62.6544H41.9142ZM50.2683 62.6544L41.1284 54.6613H58.6854L61.9873 62.6544H50.2683Z" fill="white"/>
</g>
<defs>
<clipPath id="clip0_4621_167">
<rect width="64.0833" height="64.0833" fill="white" transform="translate(0.242676 0.45752)"/>
</clipPath>
</defs>
</svg>
