<svg width="35" height="34" viewBox="0 0 35 34" fill="none" xmlns="http://www.w3.org/2000/svg">
<path d="M17.4877 33.9876C26.7658 33.9876 34.2872 26.4662 34.2872 17.1881C34.2872 7.91005 26.7658 0.388672 17.4877 0.388672C8.20961 0.388672 0.688232 7.91005 0.688232 17.1881C0.688232 26.4662 8.20961 33.9876 17.4877 33.9876Z" fill="#373C59"/>
<path d="M26.766 11.4239C26.1595 11.6853 25.5207 11.8641 24.8666 11.9557C25.1705 11.9557 25.6074 11.3669 25.8163 11.1485C26.0909 10.8173 26.3004 10.437 26.4336 10.0279C26.4336 10.0279 26.4336 9.95193 26.4336 9.93294C26.4177 9.92377 26.3997 9.91895 26.3813 9.91895C26.363 9.91895 26.345 9.92377 26.3291 9.93294C25.6348 10.3003 24.8981 10.581 24.1354 10.7686C24.1126 10.783 24.0863 10.7906 24.0595 10.7906C24.0326 10.7906 24.0062 10.783 23.9835 10.7686C23.9251 10.6977 23.8616 10.631 23.7935 10.5692C23.4778 10.2957 23.1182 10.0773 22.7299 9.92344C22.2136 9.7088 21.6543 9.61775 21.0965 9.65754C20.5554 9.69697 20.0279 9.84612 19.5463 10.0959C19.0647 10.3457 18.639 10.6909 18.295 11.1105C17.9396 11.5494 17.6866 12.062 17.5543 12.611C17.4499 13.1313 17.4499 13.6671 17.5543 14.1874C17.5543 14.2729 17.5542 14.2824 17.4783 14.2729C14.5781 13.9854 11.8878 12.6318 9.92852 10.4742C9.84305 10.3698 9.79555 10.3698 9.72907 10.4742C9.32981 11.1969 9.17684 12.03 9.29336 12.8473C9.40988 13.6647 9.78954 14.4218 10.3748 15.0041L10.8402 15.4125C10.3346 15.368 9.84187 15.2296 9.38721 15.0041C9.29224 14.9471 9.25423 15.0041 9.24473 15.0801C9.23077 15.2222 9.23077 15.3653 9.24473 15.5074C9.3346 16.1877 9.60351 16.8319 10.024 17.3742C10.4445 17.9165 11.0014 18.3374 11.6379 18.5938C11.7924 18.6643 11.9551 18.7154 12.1222 18.7458C11.6472 18.8205 11.1633 18.8205 10.6882 18.7458C10.5838 18.7458 10.5458 18.7458 10.5838 18.8787C10.8277 19.5194 11.2315 20.087 11.7568 20.5275C12.2821 20.968 12.9113 21.2668 13.5847 21.3953C13.722 21.4044 13.8585 21.4235 13.993 21.4523C13.4103 21.9806 12.7054 22.3559 11.9418 22.5444C10.9441 22.899 9.88176 23.0351 8.82688 22.9433C8.65594 22.9433 8.62744 22.9433 8.57996 22.9433C8.53248 22.9433 8.58001 23.0098 8.62749 23.0572C8.83642 23.1902 9.05483 23.3136 9.27325 23.4371C9.93421 23.7901 10.6316 24.0703 11.353 24.2728C13.2045 24.8255 15.1681 24.8858 17.05 24.4478C18.9319 24.0098 20.667 23.0886 22.0841 21.7752C23.1034 20.6683 23.8914 19.369 24.4018 17.9535C24.9123 16.538 25.1349 15.0348 25.0566 13.5322C25.0566 13.4182 25.199 13.3517 25.2845 13.2852C25.842 12.8512 26.3345 12.3395 26.7469 11.7658C26.8106 11.681 26.844 11.5774 26.8419 11.4714C26.8419 11.4714 26.8419 11.3954 26.766 11.4239Z" fill="white"/>
</svg>
