<svg width="38" height="38" viewBox="0 0 38 38" fill="none" xmlns="http://www.w3.org/2000/svg">
<path d="M4.24404 27.3064C4.47022 27.3067 4.69423 27.2623 4.90319 27.1758C5.11216 27.0892 5.30196 26.9622 5.4617 26.8021L15.15 17.1137L19.0984 21.0621C19.2583 21.222 19.4481 21.3489 19.657 21.4354C19.866 21.5219 20.0899 21.5665 20.316 21.5665C20.5422 21.5665 20.7661 21.5219 20.975 21.4354C21.184 21.3489 21.3738 21.222 21.5337 21.0621L32.3694 10.2264L32.3687 14.1044C32.3687 14.5611 32.5502 14.9991 32.8731 15.3221C33.196 15.645 33.634 15.8264 34.0907 15.8264C34.5474 15.8264 34.9854 15.645 35.3084 15.3221C35.6313 14.9991 35.8127 14.5611 35.8127 14.1044L35.814 6.06843C35.814 5.61173 35.6326 5.17373 35.3097 4.8508C34.9867 4.52786 34.5487 4.34644 34.092 4.34644H26.056C25.5993 4.34644 25.1613 4.52786 24.8384 4.8508C24.5154 5.17373 24.334 5.61173 24.334 6.06843C24.334 6.52514 24.5154 6.96313 24.8384 7.28607C25.1613 7.60901 25.5993 7.79043 26.056 7.79043H29.9348L20.316 17.4092L16.3677 13.4608C16.2078 13.3008 16.018 13.174 15.809 13.0875C15.6001 13.0009 15.3762 12.9564 15.15 12.9564C14.9239 12.9564 14.7 13.0009 14.491 13.0875C14.2821 13.174 14.0923 13.3008 13.9324 13.4608L3.02637 24.3668C2.78553 24.6076 2.62151 24.9144 2.55506 25.2485C2.48862 25.5825 2.52272 25.9287 2.65306 26.2434C2.7834 26.5581 3.00412 26.827 3.28731 27.0162C3.5705 27.2054 3.90345 27.3064 4.24404 27.3064V27.3064Z" fill="white"/>
<path d="M34.0924 30.7498H4.24446C3.78776 30.7498 3.34976 30.9312 3.02682 31.2541C2.70389 31.5771 2.52246 32.0151 2.52246 32.4718C2.52246 32.9285 2.70389 33.3665 3.02682 33.6894C3.34976 34.0123 3.78776 34.1937 4.24446 34.1937H34.0924C34.5492 34.1937 34.9871 34.0123 35.3101 33.6894C35.633 33.3665 35.8144 32.9285 35.8144 32.4718C35.8144 32.0151 35.633 31.5771 35.3101 31.2541C34.9871 30.9312 34.5492 30.7498 34.0924 30.7498Z" fill="white"/>
</svg>
