<svg width="35" height="34" viewBox="0 0 35 34" fill="none" xmlns="http://www.w3.org/2000/svg">
<path d="M17.7692 33.9876C27.0473 33.9876 34.5687 26.4662 34.5687 17.1881C34.5687 7.91005 27.0473 0.388672 17.7692 0.388672C8.49111 0.388672 0.969727 7.91005 0.969727 17.1881C0.969727 26.4662 8.49111 33.9876 17.7692 33.9876Z" fill="#373C59"/>
<path d="M26.7626 14.8232C26.7626 13.7527 26.3373 12.7261 25.5804 11.9692C24.8235 11.2123 23.797 10.7871 22.7265 10.7871H12.4132C11.3428 10.7871 10.3162 11.2123 9.55929 11.9692C8.80238 12.7261 8.3772 13.7527 8.3772 14.8232V19.5715C8.3772 20.6419 8.80238 21.6685 9.55929 22.4254C10.3162 23.1823 11.3428 23.6075 12.4132 23.6075H22.7265C23.797 23.6075 24.8235 23.1823 25.5804 22.4254C26.3373 21.6685 26.7626 20.6419 26.7626 19.5715V14.8232ZM20.6943 17.5772L16.0694 19.8659C15.889 19.9703 15.2717 19.8659 15.2717 19.6284V14.9276C15.2717 14.7187 15.8985 14.5857 16.0789 14.6902L20.5043 17.1023C20.6942 17.1783 20.8842 17.4442 20.6943 17.5487V17.5772Z" fill="white"/>
</svg>
